<mxfile host="app.diagrams.net" agent="Mozilla/5.0 (Windows NT 10.0; Win64; x64) AppleWebKit/537.36 (KHTML, like Gecko) Chrome/133.0.0.0 Safari/537.36 OPR/118.0.0.0 (Edition Yx GX)" version="27.0.5">
  <diagram name="Page-1" id="e7e014a7-5840-1c2e-5031-d8a46d1fe8dd">
    <mxGraphModel dx="988" dy="564" grid="1" gridSize="10" guides="1" tooltips="1" connect="1" arrows="1" fold="1" page="1" pageScale="1" pageWidth="1169" pageHeight="826" background="none" math="0" shadow="0">
      <root>
        <mxCell id="0" />
        <mxCell id="1" parent="0" />
        <mxCell id="p-7kJBRapD02zAk9ISdf-42" style="edgeStyle=orthogonalEdgeStyle;rounded=0;orthogonalLoop=1;jettySize=auto;html=1;entryX=0.5;entryY=0;entryDx=0;entryDy=0;" edge="1" parent="1" source="13" target="p-7kJBRapD02zAk9ISdf-41">
          <mxGeometry relative="1" as="geometry" />
        </mxCell>
        <mxCell id="13" value="" style="ellipse;shape=startState;fillColor=#000000;strokeColor=#ff0000;" parent="1" vertex="1">
          <mxGeometry x="570" y="50" width="30" height="30" as="geometry" />
        </mxCell>
        <mxCell id="p-7kJBRapD02zAk9ISdf-44" style="edgeStyle=orthogonalEdgeStyle;rounded=0;orthogonalLoop=1;jettySize=auto;html=1;entryX=0.5;entryY=0;entryDx=0;entryDy=0;" edge="1" parent="1" source="p-7kJBRapD02zAk9ISdf-41" target="p-7kJBRapD02zAk9ISdf-43">
          <mxGeometry relative="1" as="geometry" />
        </mxCell>
        <mxCell id="p-7kJBRapD02zAk9ISdf-41" value="Проектирование" style="rounded=1;whiteSpace=wrap;html=1;" vertex="1" parent="1">
          <mxGeometry x="532" y="100" width="105" height="40" as="geometry" />
        </mxCell>
        <mxCell id="p-7kJBRapD02zAk9ISdf-46" style="edgeStyle=orthogonalEdgeStyle;rounded=0;orthogonalLoop=1;jettySize=auto;html=1;entryX=0.5;entryY=0;entryDx=0;entryDy=0;" edge="1" parent="1" source="p-7kJBRapD02zAk9ISdf-43" target="p-7kJBRapD02zAk9ISdf-45">
          <mxGeometry relative="1" as="geometry" />
        </mxCell>
        <mxCell id="p-7kJBRapD02zAk9ISdf-48" style="edgeStyle=orthogonalEdgeStyle;rounded=0;orthogonalLoop=1;jettySize=auto;html=1;entryX=0;entryY=0.5;entryDx=0;entryDy=0;" edge="1" parent="1" source="p-7kJBRapD02zAk9ISdf-43" target="p-7kJBRapD02zAk9ISdf-47">
          <mxGeometry relative="1" as="geometry" />
        </mxCell>
        <mxCell id="p-7kJBRapD02zAk9ISdf-43" value="Планирование" style="rounded=1;whiteSpace=wrap;html=1;" vertex="1" parent="1">
          <mxGeometry x="532.5" y="160" width="105" height="40" as="geometry" />
        </mxCell>
        <mxCell id="p-7kJBRapD02zAk9ISdf-51" style="edgeStyle=orthogonalEdgeStyle;rounded=0;orthogonalLoop=1;jettySize=auto;html=1;entryX=0.5;entryY=0;entryDx=0;entryDy=0;" edge="1" parent="1" source="p-7kJBRapD02zAk9ISdf-45" target="p-7kJBRapD02zAk9ISdf-57">
          <mxGeometry relative="1" as="geometry">
            <mxPoint x="585" y="280" as="targetPoint" />
          </mxGeometry>
        </mxCell>
        <mxCell id="p-7kJBRapD02zAk9ISdf-45" value="Строительство" style="rounded=1;whiteSpace=wrap;html=1;" vertex="1" parent="1">
          <mxGeometry x="532.5" y="220" width="105" height="40" as="geometry" />
        </mxCell>
        <mxCell id="p-7kJBRapD02zAk9ISdf-49" style="edgeStyle=orthogonalEdgeStyle;rounded=0;orthogonalLoop=1;jettySize=auto;html=1;entryX=1;entryY=0.5;entryDx=0;entryDy=0;" edge="1" parent="1" source="p-7kJBRapD02zAk9ISdf-47" target="p-7kJBRapD02zAk9ISdf-41">
          <mxGeometry relative="1" as="geometry">
            <Array as="points">
              <mxPoint x="720" y="120" />
            </Array>
          </mxGeometry>
        </mxCell>
        <mxCell id="p-7kJBRapD02zAk9ISdf-47" value="Планирование" style="rounded=1;whiteSpace=wrap;html=1;" vertex="1" parent="1">
          <mxGeometry x="660" y="160" width="105" height="40" as="geometry" />
        </mxCell>
        <mxCell id="p-7kJBRapD02zAk9ISdf-53" style="edgeStyle=orthogonalEdgeStyle;rounded=0;orthogonalLoop=1;jettySize=auto;html=1;entryX=0;entryY=0.5;entryDx=0;entryDy=0;exitX=1;exitY=0.5;exitDx=0;exitDy=0;" edge="1" parent="1" source="p-7kJBRapD02zAk9ISdf-57" target="p-7kJBRapD02zAk9ISdf-52">
          <mxGeometry relative="1" as="geometry">
            <mxPoint x="620" y="310" as="sourcePoint" />
            <Array as="points">
              <mxPoint x="623" y="310" />
            </Array>
          </mxGeometry>
        </mxCell>
        <mxCell id="p-7kJBRapD02zAk9ISdf-56" style="edgeStyle=orthogonalEdgeStyle;rounded=0;orthogonalLoop=1;jettySize=auto;html=1;entryX=0.5;entryY=0;entryDx=0;entryDy=0;" edge="1" parent="1" target="p-7kJBRapD02zAk9ISdf-55">
          <mxGeometry relative="1" as="geometry">
            <mxPoint x="585" y="340" as="sourcePoint" />
          </mxGeometry>
        </mxCell>
        <mxCell id="p-7kJBRapD02zAk9ISdf-54" style="edgeStyle=orthogonalEdgeStyle;rounded=0;orthogonalLoop=1;jettySize=auto;html=1;entryX=1;entryY=0.5;entryDx=0;entryDy=0;" edge="1" parent="1" source="p-7kJBRapD02zAk9ISdf-52" target="p-7kJBRapD02zAk9ISdf-45">
          <mxGeometry relative="1" as="geometry">
            <Array as="points">
              <mxPoint x="720" y="240" />
            </Array>
          </mxGeometry>
        </mxCell>
        <mxCell id="p-7kJBRapD02zAk9ISdf-52" value="Доработка" style="rounded=1;whiteSpace=wrap;html=1;" vertex="1" parent="1">
          <mxGeometry x="660" y="290" width="105" height="40" as="geometry" />
        </mxCell>
        <mxCell id="p-7kJBRapD02zAk9ISdf-55" value="Сдача обьекта" style="rounded=1;whiteSpace=wrap;html=1;" vertex="1" parent="1">
          <mxGeometry x="532.5" y="373" width="105" height="40" as="geometry" />
        </mxCell>
        <mxCell id="p-7kJBRapD02zAk9ISdf-57" value="Контроль качества" style="rhombus;whiteSpace=wrap;html=1;" vertex="1" parent="1">
          <mxGeometry x="546.5" y="275" width="77" height="70" as="geometry" />
        </mxCell>
      </root>
    </mxGraphModel>
  </diagram>
</mxfile>
